HIERARCHY
ROOT Hips
{
  OFFSET 0 89.5177 0.535
  CHANNELS 6 Xposition Yposition Zposition Zrotation Xrotation Yrotation
  JOINT Spine
  {
    OFFSET 12.0259 -0.162855 1.69034e-005
    CHANNELS 3 Zrotation Xrotation Yrotation
    JOINT Spine1
    {
      OFFSET 15.3169 -0.0121922 0
      CHANNELS 3 Zrotation Xrotation Yrotation
      JOINT Spine2
      {
        OFFSET 15.3176 -0.0121908 0
        CHANNELS 3 Zrotation Xrotation Yrotation
        JOINT Neck
        {
          OFFSET 19.9142 1.56338 0
          CHANNELS 3 Zrotation Xrotation Yrotation
          JOINT Head
          {
            OFFSET 6.92651 0 0
            CHANNELS 3 Zrotation Xrotation Yrotation
            End Site
            {
              OFFSET 20.7666 0 0
            }
          }
          JOINT LeftShoulder
          {
            OFFSET -6.20654 0.708824 7.28219
            CHANNELS 3 Zrotation Xrotation Yrotation
            JOINT LeftArm
            {
              OFFSET 14.108 0 -1.52588e-005
              CHANNELS 3 Zrotation Xrotation Yrotation
              JOINT LeftForeArm
              {
                OFFSET 28.5802 0 0
                CHANNELS 3 Zrotation Xrotation Yrotation
                JOINT LeftHand
                {
                  OFFSET 27.092 0 0
                  CHANNELS 3 Zrotation Xrotation Yrotation
                  End Site
                  {
                    OFFSET 9.55928 -0.186424 0.145352
                  }
                }
              }
            }
          }
          JOINT RightShoulder
          {
            OFFSET -6.20654 0.708866 -7.28218
            CHANNELS 3 Zrotation Xrotation Yrotation
            JOINT RightArm
            {
              OFFSET 14.108 0 1.52588e-005
              CHANNELS 3 Zrotation Xrotation Yrotation
              JOINT RightForeArm
              {
                OFFSET 28.5802 0 0
                CHANNELS 3 Zrotation Xrotation Yrotation
                JOINT RightHand
                {
                  OFFSET 27.092 0 0
                  CHANNELS 3 Zrotation Xrotation Yrotation
                  End Site
                  {
                    OFFSET 9.55929 -0.186417 -0.145354
                  }
                }
              }
            }
          }
        }
      }
    }
  }
  JOINT LeftUpLeg
  {
    OFFSET 0.005 -0.535 8.837
    CHANNELS 3 Zrotation Xrotation Yrotation
    JOINT LeftLeg
    {
      OFFSET 39.9035 0 0
      CHANNELS 3 Zrotation Xrotation Yrotation
      JOINT LeftFoot
      {
        OFFSET 39.6689 0 0
        CHANNELS 3 Zrotation Xrotation Yrotation
        JOINT LeftToe
        {
          OFFSET 10.1624 13.6296 0
          CHANNELS 3 Zrotation Xrotation Yrotation
          End Site
          {
            OFFSET 8.38147 0 0
          }
        }
      }
    }
  }
  JOINT RightUpLeg
  {
    OFFSET 0.005 -0.535 -8.837
    CHANNELS 3 Zrotation Xrotation Yrotation
    JOINT RightLeg
    {
      OFFSET 39.9035 0 0
      CHANNELS 3 Zrotation Xrotation Yrotation
      JOINT RightFoot
      {
        OFFSET 39.6689 0 0
        CHANNELS 3 Zrotation Xrotation Yrotation
        JOINT RightToe
        {
          OFFSET 10.1624 13.6296 0
          CHANNELS 3 Zrotation Xrotation Yrotation
          End Site
          {
            OFFSET 8.38147 0 0
          }
        }
      }
    }
  }
}
MOTION
Frames:	8
Frame Time:	0.0333333
385.736 83.4962 -276.639 116.62 1.7797 -6.28679 -0.590735 -1.34271 0.28726 -1.17521 -2.68782 0.561062 -1.17521 -2.68782 0.561053 -8.3051e-012 -9.0191e-006 -5.27751e-005 -1.19471 16.6782 -4.53202 -179.661 -2.15969 -81.0722 -23.3675 24.3343 67.7192 -100.864 0 -9.54166e-015 -54.9619 -47.3171 -44.6086 -177.316 8.35061 72.1104 11.7578 -4.89168 -64.0591 -120.161 0 1.59028e-015 -65.3626 24.7456 43.563 2.4648 -8.83315 -179.504 -35.943 1.59028e-015 1.98785e-016 -12.5826 9.28789 -18.9665 90 0 3.18055e-015 -58.0703 -14.7206 -175.404 -34.9188 -2.38542e-015 -2.38542e-015 18.7934 -4.11012 -5.21325 90 9.93923e-017 3.97569e-016 
376.846 80.9596 -276.693 116.129 2.97342 -7.37607 -0.662349 -0.894765 0.669132 -1.31444 -1.79668 1.3283 -1.31444 -1.79668 1.32829 -8.30416e-012 -9.0191e-006 -5.27751e-005 -1.81289 13.2403 -5.05786 -179.704 -1.8482 -80.8938 -23.3979 27.8252 67.2824 -100.486 0 -3.18055e-015 -54.0871 -48.4709 -43.7845 -177.477 7.67472 71.7388 5.82784 -3.94448 -64.5226 -114.923 -3.18055e-015 -1.59028e-015 -64.7939 21.8989 38.521 -2.33312 -6.31935 -177.308 -52.2764 0 -3.47873e-016 -15.187 8.11245 -16.5808 90 -3.18055e-015 -4.77083e-015 -59.2419 -15.1127 -174.399 -40.3771 -3.97569e-016 -1.59028e-015 7.36381 -0.975293 -7.64604 90 6.21202e-018 7.95139e-016 
368.68 78.7198 -276.937 113.939 1.10489 -9.6528 -0.317143 0.301904 1.46219 -0.641907 0.596081 2.92626 -0.641907 0.596081 2.92625 -8.31286e-012 -9.0191e-006 -5.27751e-005 -3.84913 10.1211 -6.95107 -179.684 -1.74298 -79.7329 -22.0754 30.8275 66.514 -98.2034 -9.54166e-015 -3.18055e-015 -54.0551 -49.0547 -44.0727 -177.888 6.10087 70.8609 2.84034 -0.156617 -62.538 -104.885 -1.59028e-015 -3.97569e-016 -66.6276 17.9865 34.1735 -8.9399 -3.15504 -173.43 -70.1395 0 2.98177e-016 -19.1524 6.59504 -13.4878 90 3.18055e-015 -0 -57.3246 -10.1885 -169.773 -52.7366 0 1.59028e-015 18.8754 2.32063 -5.7581 90 1.21329e-020 2.48481e-017 
360.35 77.5327 -277.036 113.604 0.487963 -10.7126 -0.388644 1.02068 1.92567 -0.811582 2.02817 3.85931 -0.811582 2.02817 3.8593 -8.30582e-012 -9.0191e-006 -5.27751e-005 -2.89279 8.19547 -8.42286 -179.425 -2.73302 -78.1129 -19.2694 34.1197 65.9689 -93.7522 0 -0 -53.6512 -48.7752 -45.2542 -178.204 4.70535 69.0796 -0.0340446 7.30539 -59.3573 -82.6309 0 -0 -72.304 12.1504 30.0464 -19.0917 -4.27687 -171.974 -85.3188 0 -1.2424e-017 -15.8712 6.18493 -12.6777 90 4.77083e-015 1.59028e-015 -52.6737 -10.4851 -167.651 -57.6758 7.95139e-016 -0 28.0017 2.45006 -6.24928 90 1.21329e-020 1.98785e-016 
352.116 77.6104 -276.733 114.862 1.36263 -8.82149 -0.996398 1.50446 1.45017 -2.03162 2.98343 2.92797 -2.03162 2.98343 2.92797 -8.31377e-012 -9.0191e-006 -5.27751e-005 -1.17913 5.96398 -8.48326 -179.165 -3.73791 -77.4033 -15.4778 39.7319 63.9064 -93.577 0 -3.18055e-015 -51.5517 -48.1828 -43.032 -178.09 4.57905 67.3346 -3.27118 17.5531 -57.6144 -50.8521 0 -7.95139e-016 -66.0922 14.4916 26.7428 -31.7196 -6.37615 -175.218 -94.413 7.95139e-016 -9.93923e-017 -11.7081 6.32328 -12.9453 90 1.59028e-015 1.59028e-015 -47.0869 -9.82991 -169.238 -57.4443 0 -7.95139e-016 34.6065 1.36232 -6.25211 90 -2.42657e-020 -1.98785e-016 
343.308 79.2667 -276.437 114.079 1.88133 -7.39943 -1.142 2.34063 1.02489 -2.32868 4.66043 2.09909 -2.32867 4.66043 2.09908 -8.30922e-012 -9.0191e-006 -5.27751e-005 0.572124 2.22164 -8.5492 -179.308 -3.38454 -78.4378 -11.7973 44.8201 63.3238 -95.1209 1.59028e-015 7.95139e-016 -53.6956 -49.2238 -45.2454 -178.602 3.1685 66.1751 -2.34192 28.0519 -55.0492 -21.6813 -7.95139e-016 -0 -46.9093 19.5606 20.3854 -40.8538 -7.03087 -177.917 -95.4805 0 -0 -9.16208 6.6328 -13.5038 90 0 -3.18055e-015 -35.1598 -7.82005 -169.683 -48.5676 0 -7.95139e-016 36.9259 0.364209 -5.65381 90 1.21329e-020 3.97569e-016 
334.067 81.5865 -275.89 113.695 2.61945 -4.1096 -1.0998 3.34229 0.193265 -2.21659 6.68068 0.452223 -2.21659 6.68068 0.452214 -8.30897e-012 -9.0191e-006 -5.27751e-005 1.74253 -2.80222 -9.30922 -179.547 -2.51557 -79.7884 -10.549 48.5453 63.0782 -97.4995 -1.59028e-015 -3.97569e-016 -54.5628 -51.8643 -47.4038 179.949 -0.127374 68.1931 11.7062 36.114 -58.7789 -1.02274 2.38542e-015 -0 -27.8308 26.3442 19.3007 -47.9471 -5.31659 177.868 -89.6731 7.95139e-016 -1.98785e-016 -6.0515 5.69975 -11.5225 90 -1.59028e-015 -0 -24.6346 -4.4142 -172.503 -40.0429 7.95139e-016 -0 33.7185 0.308717 -4.84452 90 -6.21202e-018 3.72721e-017 
324.43 84.1449 -274.981 113.671 4.97965 -1.28636 -0.96375 3.88854 -0.72287 -1.88469 7.78889 -1.38454 -1.88469 7.78889 -1.38455 -8.31146e-012 -9.0191e-006 -5.27751e-005 2.14833 -6.75286 -9.86092 -179.698 -1.81726 -80.5495 -8.64527 50.8571 62.1961 -100.105 0 -9.93923e-017 -56.7579 -51.8608 -49.0203 179.641 -0.98359 69.9641 18.0097 32.4375 -59.9672 -3.41506e-006 9.93923e-017 -1.59028e-015 -33.6918 41.4334 34.1829 -52.2787 -3.95065 173.198 -77.8362 -3.97569e-016 -9.93923e-017 -4.90869 3.73051 -7.49041 90 0 1.59028e-015 -15.1993 -4.97174 -176.424 -32.2905 -3.97569e-016 3.97569e-016 25.3714 -1.87431 -4.03923 90 9.93923e-017 1.19271e-015 
